<?xml version="1.0" standalone="no"?>
<!DOCTYPE svg PUBLIC "-//W3C//DTD SVG 20010904//EN"
 "http://www.w3.org/TR/2001/REC-SVG-20010904/DTD/svg10.dtd">
<svg version="1.0" xmlns="http://www.w3.org/2000/svg"
 width="700.000000pt" height="700.000000pt" viewBox="0 0 700.000000 700.000000"
 preserveAspectRatio="xMidYMid meet">
<metadata>
Created by potrace 1.11, written by Peter Selinger 2001-2013
</metadata>
<g transform="translate(0.000000,700.000000) scale(0.100000,-0.100000)"
fill="#000000" stroke="none">
<path d="M3225 6466 c-94 -29 -153 -79 -192 -164 -46 -97 -41 -135 57 -497 12
-44 27 -102 35 -130 24 -91 176 -658 210 -785 215 -801 255 -953 251 -957 -2
-2 -53 10 -114 26 -60 17 -144 40 -186 51 -42 11 -109 29 -148 39 -40 11 -192
51 -338 90 -146 39 -278 75 -295 80 -16 5 -102 28 -190 51 -88 23 -191 50
-230 61 -113 31 -312 85 -715 193 -52 14 -248 66 -435 116 -187 50 -392 105
-455 122 -73 19 -138 30 -179 30 -263 -1 -393 -321 -205 -508 66 -66 36 -56
589 -203 364 -97 415 -112 415 -119 0 -2 38 -146 85 -320 47 -175 94 -353 106
-397 12 -44 25 -93 30 -110 8 -26 59 -219 138 -515 198 -745 307 -1145 324
-1190 30 -74 107 -150 177 -172 99 -32 223 -11 290 50 14 12 28 22 31 22 3 0
23 33 44 74 36 72 37 77 32 153 -3 43 -17 119 -31 168 -27 100 -246 911 -251
935 -2 8 -15 58 -30 110 -14 52 -28 102 -30 110 -2 8 -13 51 -25 95 -12 44
-58 215 -102 380 -44 165 -89 329 -98 365 -10 36 -17 66 -16 67 0 1 84 -21
186 -49 102 -27 193 -51 203 -54 21 -5 28 -7 142 -38 50 -13 135 -36 190 -51
527 -140 776 -207 805 -215 19 -6 133 -36 253 -69 120 -32 219 -60 221 -62 2
-3 91 -329 111 -409 5 -20 56 -210 105 -395 23 -82 52 -193 66 -245 14 -52 34
-128 45 -170 12 -41 27 -97 34 -125 8 -27 23 -85 35 -127 11 -43 23 -85 25
-95 2 -10 51 -193 108 -408 58 -214 115 -425 127 -469 26 -100 53 -151 102
-199 58 -56 118 -79 208 -80 136 -1 71 -59 1191 1062 1120 1119 1062 1054
1062 1191 1 55 -5 88 -20 122 -25 56 -100 134 -148 154 -29 12 -183 55 -475
133 -41 11 -226 60 -410 109 -184 49 -344 92 -355 95 -11 3 -130 35 -265 72
-135 36 -253 68 -263 70 -10 2 -27 7 -37 10 -10 3 -27 8 -37 10 -43 10 -368
98 -372 101 -2 2 351 358 784 791 433 433 802 805 820 828 111 135 71 352 -80
441 -47 27 -54 29 -225 75 -130 35 -327 88 -350 94 -8 2 -109 29 -225 60 -115
31 -217 58 -225 60 -8 2 -100 27 -205 55 -104 28 -255 69 -335 90 -80 21 -264
71 -410 110 -146 39 -317 85 -380 102 -103 28 -189 51 -347 93 -74 21 -161 25
-208 11z m910 -826 c491 -132 648 -173 750 -200 66 -18 152 -41 190 -52 39
-11 88 -24 110 -28 22 -5 52 -13 68 -19 27 -11 57 -18 110 -28 15 -3 27 -8 27
-12 0 -9 -1209 -1216 -1213 -1211 -2 3 -14 46 -26 95 -12 50 -26 101 -31 115
-5 14 -25 86 -44 160 -20 74 -66 245 -102 380 -36 135 -79 297 -95 360 -17 63
-38 144 -49 180 -10 36 -35 128 -55 205 -21 77 -40 145 -42 151 -4 11 75 -8
402 -96z m490 -2615 c77 -21 212 -57 300 -80 88 -24 320 -86 515 -139 195 -52
407 -109 470 -126 63 -17 134 -36 158 -42 24 -5 42 -12 40 -14 -5 -6 -1068
-1070 -1146 -1147 l-69 -68 -32 123 c-36 135 -113 424 -166 618 -64 238 -187
695 -211 790 -14 52 -27 103 -30 113 -5 15 -2 18 13 14 10 -3 81 -22 158 -42z"/>
</g>
</svg>
