<?xml version="1.0" encoding="UTF-8"?>
<!-- Created with Inkscape (http://www.inkscape.org/) -->
<svg width="512.01" height="310.85" version="1.1" viewBox="0 0 135.47 82.243" xmlns="http://www.w3.org/2000/svg" xmlns:cc="http://creativecommons.org/ns#" xmlns:dc="http://purl.org/dc/elements/1.1/" xmlns:rdf="http://www.w3.org/1999/02/22-rdf-syntax-ns#" xmlns:xlink="http://www.w3.org/1999/xlink">
 <defs>
  <radialGradient id="radialGradient2166" cx="-165.82" cy="298.05" r="2.2524" gradientTransform="matrix(2.1451 0 0 2.1451 131.87 -753.61)" gradientUnits="userSpaceOnUse">
   <stop stop-color="#edfcd3" offset="0"/>
   <stop stop-color="#aaef32" offset="1"/>
  </radialGradient>
  <radialGradient id="radialGradient2160" cx="-180.75" cy="293.14" r="2.2524" gradientTransform="matrix(2.1451 0 0 2.1451 131.87 -753.61)" gradientUnits="userSpaceOnUse">
   <stop stop-color="#fff" offset="0"/>
   <stop stop-color="#41f2e6" offset="1"/>
  </radialGradient>
  <radialGradient id="radialGradient2162" cx="-177.54" cy="295.21" r="2.2524" gradientTransform="matrix(2.1451 0 0 2.1451 131.87 -753.61)" gradientUnits="userSpaceOnUse">
   <stop stop-color="#fff" offset="0"/>
   <stop stop-color="#ed3b98" offset="1"/>
  </radialGradient>
  <radialGradient id="radialGradient2158" cx="-173.19" cy="302.02" r="2.2524" gradientTransform="matrix(2.1451 0 0 2.1451 131.87 -753.61)" gradientUnits="userSpaceOnUse">
   <stop stop-color="#fff" offset="0"/>
   <stop stop-color="#c11ec4" stop-opacity=".84951" offset="1"/>
  </radialGradient>
  <radialGradient id="radialGradient2164" cx="-171.77" cy="295.12" r="2.2524" gradientTransform="matrix(2.1451 0 0 2.1451 131.87 -753.61)" gradientUnits="userSpaceOnUse">
   <stop stop-color="#fff" offset="0"/>
   <stop stop-color="#f05146" offset="1"/>
  </radialGradient>
  <radialGradient id="radialGradient2156" cx="-170.55" cy="308.82" r="2.2524" gradientTransform="matrix(2.1451 0 0 2.1451 131.87 -753.61)" gradientUnits="userSpaceOnUse">
   <stop stop-color="#fff" offset="0"/>
   <stop stop-color="#d5b748" offset="1"/>
  </radialGradient>
  <radialGradient id="radialGradient2168" cx="-183.77" cy="300.51" r="2.2524" gradientTransform="matrix(2.1451 0 0 2.1451 131.87 -753.61)" gradientUnits="userSpaceOnUse">
   <stop stop-color="#fff" offset="0"/>
   <stop stop-color="#4cd0b5" offset="1"/>
  </radialGradient>
  <radialGradient id="radialGradient2170" cx="-180.47" cy="309.67" r="2.2524" gradientTransform="matrix(2.1451 0 0 2.1451 131.87 -753.61)" gradientUnits="userSpaceOnUse">
   <stop stop-color="#f7fbfb" offset="0"/>
   <stop stop-color="#4c9c9f" offset="1"/>
  </radialGradient>
  <radialGradient id="radialGradient2172" cx="-191.33" cy="299.94" r="2.2524" gradientTransform="matrix(2.1451 0 0 2.1451 131.87 -753.61)" gradientUnits="userSpaceOnUse">
   <stop stop-color="#fff" offset="0"/>
   <stop stop-color="#784c9f" offset="1"/>
  </radialGradient>
 </defs>
 <metadata>
  <rdf:RDF>
   <cc:Work rdf:about="">
    <dc:format>image/svg+xml</dc:format>
    <dc:type rdf:resource="http://purl.org/dc/dcmitype/StillImage"/>
    <dc:title/>
   </cc:Work>
  </rdf:RDF>
 </metadata>
 <g transform="translate(4.4625e-6 -214.76)">
  <g transform="translate(313.15 171.12)">
   <path d="m-252.23 111.91 49.183-4.9893-40.099-28.914z" fill="#434f64"/>
   <path d="m-252.23 111.91 9.0842-33.903-49.183 4.9906z" fill="#29303d"/>
   <path d="m-242.2 119.14-10.025-7.2282 12.296-1.2475 10.025 7.2282zm12.296-1.2475-10.025-7.2282 12.296-1.2475 10.025 7.2282zm12.296-1.2475-10.025-7.2282 12.296-1.2475 10.025 7.2282zm12.296-1.2475-10.025-7.2282 12.296-1.2475 10.025 7.2282z" fill="#bca287"/>
   <path d="m-203.04 106.92 10.025 7.2282-49.183 4.99-10.025-7.2284" fill="none" stroke="#000" stroke-width=".56753"/>
   <path d="m-294.6 91.475-10.025-7.2282 12.296-1.2475 10.025 7.2282zm10.025 7.2282-10.025-7.2282 12.296-1.2475 10.025 7.2282zm10.025 7.2282-10.025-7.2282 12.296-1.2475 10.025 7.2282zm10.025 7.2282-10.025-7.2282 12.296-1.2475 10.025 7.2282z" fill="#c8b39d"/>
   <path d="m-252.23 111.91-12.296 1.2475-40.099-28.913 12.296-1.247" fill="none" stroke="#000" stroke-width=".56753"/>
   <g stroke="#000" stroke-width=".32728">
    <rect transform="rotate(-45)" x="-228.5" y="-118.93" width="9.3361" height="9.3361" fill="url(#radialGradient2166)"/>
    <rect transform="rotate(-45)" x="-260.53" y="-129.47" width="9.3361" height="9.3361" fill="url(#radialGradient2160)"/>
    <rect transform="rotate(-45)" x="-253.64" y="-125.01" width="9.3361" height="9.3361" fill="url(#radialGradient2162)"/>
    <rect transform="rotate(-45)" x="-244.31" y="-110.42" width="9.3361" height="9.3361" fill="url(#radialGradient2158)"/>
    <rect transform="rotate(-45)" x="-241.27" y="-125.21" width="9.3361" height="9.3361" fill="url(#radialGradient2164)"/>
    <rect transform="rotate(-45)" x="-238.64" y="-95.821" width="9.3361" height="9.3361" fill="url(#radialGradient2156)"/>
    <rect transform="rotate(-45)" x="-267.01" y="-113.66" width="9.3361" height="9.3361" fill="url(#radialGradient2168)"/>
    <rect transform="rotate(-45)" x="-259.92" y="-93.997" width="9.3361" height="9.3361" fill="url(#radialGradient2170)"/>
    <rect transform="rotate(-45)" x="-283.23" y="-114.88" width="9.3361" height="9.3361" fill="url(#radialGradient2172)"/>
   </g>
   <path d="m-238.6 61.057 4.5423-16.952-24.592 2.4952zm-4.5422 16.952 4.5422-16.952-24.592 2.4952zm-44.64-11.961 24.591-2.4955-20.048-14.456zm24.591-2.4951-20.049-14.456 24.591-2.495 20.049 14.456z" fill="#c8b39d"/>
   <path d="m-234.06 44.106-49.183 4.9905-4.5421 16.951" fill="none" stroke="#000" stroke-width=".56753"/>
   <path d="m-238.6 61.058 24.591-2.4955-20.048-14.456zm-4.5423 16.952 24.591-2.4955-20.048-14.457zm44.641 11.961 4.5423-16.952-24.592 2.4952zm-20.049-14.457-20.049-14.456 24.591-2.495 20.049 14.456z" fill="#bca287"/>
   <path d="m-198.5 89.97 4.5422-16.951-40.099-28.914-9.0843 33.904" fill="none" stroke="#000" stroke-width=".56753"/>
   <path d="m-203.04 106.92-20.049-14.456 24.591-2.495 20.049 14.456zm-20.049-14.456-20.049-14.456 24.591-2.495 20.049 14.456z" fill="#bca287"/>
   <path d="m-243.14 78.01 24.592-2.4955 40.099 28.913-24.591 2.4956" fill="none" stroke="#000" stroke-width=".56753"/>
   <path d="m-267.73 80.504-20.049-14.456 24.591-2.495 20.049 14.456zm-24.591 2.495-20.049-14.456 24.591-2.495 20.049 14.456z" fill="#c8b39d"/>
   <path d="m-292.33 83-20.05-14.457 49.183-4.9904 20.05 14.457" fill="none" stroke="#000" stroke-width=".56753"/>
  </g>
 </g>
</svg>
