<?xml version="1.0" encoding="UTF-8"?>
<!-- Created with Inkscape (http://www.inkscape.org/) -->
<svg width="357.11" height="512" version="1.1" viewBox="0 0 94.486 135.47" xmlns="http://www.w3.org/2000/svg" xmlns:cc="http://creativecommons.org/ns#" xmlns:dc="http://purl.org/dc/elements/1.1/" xmlns:rdf="http://www.w3.org/1999/02/22-rdf-syntax-ns#">
 <metadata>
  <rdf:RDF>
   <cc:Work rdf:about="">
    <dc:format>image/svg+xml</dc:format>
    <dc:type rdf:resource="http://purl.org/dc/dcmitype/StillImage"/>
    <dc:title/>
   </cc:Work>
  </rdf:RDF>
 </metadata>
 <g transform="translate(-72.197 -93.951)">
  <g transform="matrix(1.5243 0 0 1.5243 1240.3 -707.31)">
   <path d="m-735.29 525.65-30.992 17.893 30.992 17.894 30.993-17.894z" fill="#5fd38d"/>
   <path d="m-766.28 543.54 30.993 17.894v35.787l-30.993-17.893z" fill="#217844"/>
   <path d="m-704.29 543.54-30.993 17.894v35.787l30.993-17.893z" fill="#2ca05a"/>
   <path d="m-727.54 548.02 3.8741-2.2367-3.8741-2.2368-3.8741 2.2368z" fill="#2ca05a"/>
   <path d="m-719.79 601.7-3.8741 2.2368v4.4734l3.8741-2.2367z" fill="#d400aa"/>
   <path d="m-727.54 601.7 3.8741 2.2368v4.4734l-3.8741-2.2367z" fill="#a08"/>
   <path d="m-719.79 570.38 3.8741-2.2367-3.8741-2.2368-3.8741 2.2368z" fill="#5fd38d"/>
   <path d="m-715.92 568.15-3.8741-2.2368v-4.4734l3.8741 2.2367z" fill="#217844"/>
   <path d="m-715.92 563.67 3.8741-2.2367-3.8741-2.2368-3.8741 2.2368z" fill="#5fd38d"/>
   <path d="m-750.78 570.38 3.8741-2.2367-3.8741-2.2368-3.8741 2.2368z" fill="#5fd38d"/>
   <path d="m-754.66 568.15 3.8741-2.2368v-4.4734l-3.8741 2.2367z" fill="#2ca05a"/>
   <path d="m-727.54 574.86-3.8741 2.2367 3.8741 2.2368 3.8741-2.2368z" fill="#5fd38d"/>
   <path d="m-731.41 577.09 3.8741 2.2368v4.4734l-3.8741-2.2367z" fill="#217844"/>
   <path d="m-723.67 568.15-3.8741 2.2367 3.8741 2.2368 3.8741-2.2368z" fill="#5fd38d"/>
   <path d="m-727.54 570.38 3.8741 2.2368v4.4734l-3.8741-2.2367z" fill="#217844"/>
   <path d="m-743.04 574.86-3.8741 2.2367 3.8741 2.2368 3.8741-2.2368z" fill="#5fd38d"/>
   <path d="m-739.16 577.09-3.8741 2.2368v4.4734l3.8741-2.2367z" fill="#2ca05a"/>
   <path d="m-746.91 568.15-3.8741 2.2367 3.8741 2.2368 3.8741-2.2368z" fill="#5fd38d"/>
   <path d="m-743.04 570.38-3.8741 2.2368v4.4734l3.8741-2.2367z" fill="#2ca05a"/>
   <path d="m-731.41 590.51 3.8741-2.2367-3.8741-2.2368-3.8741 2.2368z" fill="#f5d"/>
   <g transform="matrix(.3791 0 0 .3791 -649.02 427.87)">
    <path d="m-214.87 468.94-3.8741 2.2367 3.8741 2.2368 3.8741-2.2368z" fill="#f5d"/>
    <path d="m-211 471.17-3.8741 2.2368v4.4734l3.8741-2.2367z" fill="#d400aa"/>
    <path d="m-218.75 471.17 3.8741 2.2368v4.4734l-3.8741-2.2367z" fill="#a08"/>
   </g>
   <g transform="matrix(.3791 0 0 .3791 -645.95 431.88)">
    <path d="m-214.87 468.94-3.8741 2.2367 3.8741 2.2368 3.8741-2.2368z" fill="#f5d"/>
    <path d="m-211 471.17-3.8741 2.2368v4.4734l3.8741-2.2367z" fill="#d400aa"/>
    <path d="m-218.75 471.17 3.8741 2.2368v4.4734l-3.8741-2.2367z" fill="#a08"/>
   </g>
   <g transform="matrix(.3791 0 0 .3791 -639.67 430.61)">
    <path d="m-214.87 468.94-3.8741 2.2367 3.8741 2.2368 3.8741-2.2368z" fill="#f5d"/>
    <path d="m-211 471.17-3.8741 2.2368v4.4734l3.8741-2.2367z" fill="#d400aa"/>
    <path d="m-218.75 471.17 3.8741 2.2368v4.4734l-3.8741-2.2367z" fill="#a08"/>
   </g>
   <g transform="matrix(.11079 0 0 .11079 -699.39 561.57)">
    <path d="m-214.87 468.94-3.8741 2.2367 3.8741 2.2368 3.8741-2.2368z" fill="#f5d"/>
    <path d="m-211 471.17-3.8741 2.2368v4.4734l3.8741-2.2367z" fill="#d400aa"/>
    <path d="m-218.75 471.17 3.8741 2.2368v4.4734l-3.8741-2.2367z" fill="#a08"/>
   </g>
   <g transform="matrix(.11079 0 0 .11079 -700.13 559.5)">
    <path d="m-214.87 468.94-3.8741 2.2367 3.8741 2.2368 3.8741-2.2368z" fill="#f5d"/>
    <path d="m-211 471.17-3.8741 2.2368v4.4734l3.8741-2.2367z" fill="#d400aa"/>
    <path d="m-218.75 471.17 3.8741 2.2368v4.4734l-3.8741-2.2367z" fill="#a08"/>
   </g>
   <g transform="matrix(.11079 0 0 .11079 -704.07 556.13)">
    <path d="m-214.87 468.94-3.8741 2.2367 3.8741 2.2368 3.8741-2.2368z" fill="#f5d"/>
    <path d="m-211 471.17-3.8741 2.2368v4.4734l3.8741-2.2367z" fill="#d400aa"/>
    <path d="m-218.75 471.17 3.8741 2.2368v4.4734l-3.8741-2.2367z" fill="#a08"/>
   </g>
   <g transform="matrix(.11079 0 0 .11079 -701.6 556.43)">
    <path d="m-214.87 468.94-3.8741 2.2367 3.8741 2.2368 3.8741-2.2368z" fill="#f5d"/>
    <path d="m-211 471.17-3.8741 2.2368v4.4734l3.8741-2.2367z" fill="#d400aa"/>
    <path d="m-218.75 471.17 3.8741 2.2368v4.4734l-3.8741-2.2367z" fill="#a08"/>
   </g>
   <g transform="matrix(.11079 0 0 .11079 -696.08 554.89)">
    <path d="m-214.87 468.94-3.8741 2.2367 3.8741 2.2368 3.8741-2.2368z" fill="#f5d"/>
    <path d="m-211 471.17-3.8741 2.2368v4.4734l3.8741-2.2367z" fill="#d400aa"/>
    <path d="m-218.75 471.17 3.8741 2.2368v4.4734l-3.8741-2.2367z" fill="#a08"/>
   </g>
   <g transform="matrix(.11079 0 0 .11079 -698.79 560)">
    <path d="m-214.87 468.94-3.8741 2.2367 3.8741 2.2368 3.8741-2.2368z" fill="#f5d"/>
    <path d="m-211 471.17-3.8741 2.2368v4.4734l3.8741-2.2367z" fill="#d400aa"/>
    <path d="m-218.75 471.17 3.8741 2.2368v4.4734l-3.8741-2.2367z" fill="#a08"/>
   </g>
   <path d="m-712.04 556.96-3.8742 2.2366 3.8742 2.2366z" fill="#217844"/>
   <path d="m-758.53 556.96v4.4731l3.8742-2.2366z" fill="#2ca05a"/>
   <path d="m-731.41 581.57 3.8741 2.2368v4.4734l-3.8741-2.2367z" fill="#217844"/>
   <path d="m-727.54 588.28-3.8741 2.2367 3.8741 2.2368 3.8741-2.2368z" fill="#f5d"/>
   <path d="m-723.67 590.51-3.8741 2.2367 3.8741 2.2368 3.8741-2.2368z" fill="#f5d"/>
   <path d="m-719.79 592.75-3.8741 2.2368v4.4734l3.8741-2.2367z" fill="#d400aa"/>
   <path d="m-719.79 597.22-3.8741 2.2368v4.4734l3.8741-2.2367z" fill="#d400aa"/>
   <g fill="#a08">
    <path d="m-727.54 597.22 3.8741 2.2368v4.4734l-3.8741-2.2367z"/>
    <path d="m-727.54 592.75 3.8741 2.2368v4.4734l-3.8741-2.2367z"/>
    <path d="m-731.41 590.51 3.8741 2.2368v4.4734l-3.8741-2.2367z"/>
    <path d="m-735.29 588.28 3.8741 2.2368v4.4734l-3.8741-2.2367z"/>
   </g>
   <path d="m-739.16 581.57-3.8741 2.2368v4.4734l3.8741-2.2367z" fill="#2ca05a"/>
   <path d="m-739.16 586.04-3.8741 2.2367 3.8741 2.2368 3.8741-2.2368z" fill="#5fd38d"/>
   <path d="m-735.29 588.28-3.8741 2.2367 3.8741 2.2368 3.8741-2.2368z" fill="#5fd38d"/>
   <path d="m-731.41 590.51-3.8741 2.2368v4.4734l3.8741-2.2367z" fill="#2ca05a"/>
   <path d="m-735.29 588.28 3.8741-2.2367-3.8741-2.2368-3.8741 2.2368z" fill="#f5d"/>
   <path d="m-735.29 579.33 3.8741 2.2368v4.4734l-3.8741-2.2367z" fill="#a08"/>
   <path d="m-735.29 579.33-3.8741 2.2368v4.4734l3.8741-2.2367z" fill="#d400aa"/>
   <g fill="#f5d">
    <path d="m-731.41 577.09-3.8742 2.2366 3.8742 2.2366z"/>
    <path d="m-739.16 577.09v4.4731l3.8742-2.2366z"/>
    <path d="m-735.29 579.33 3.8741-2.2367-3.8741-2.2368-3.8741 2.2368z"/>
   </g>
   <path d="m-739.16 572.62-3.8742 2.2366 3.8742 2.2366z" fill="#d400aa"/>
   <path d="m-735.29 570.38-3.8741 2.2368v4.4734l3.8741-2.2367z" fill="#d400aa"/>
   <path d="m-743.04 570.38v4.4731l3.8742-2.2366z" fill="#f5d"/>
   <path d="m-739.16 572.62 3.8741-2.2367-3.8741-2.2368-3.8741 2.2368z" fill="#f5d"/>
   <path d="m-735.29 570.38 3.8741 2.2368v4.4734l-3.8741-2.2367z" fill="#a08"/>
   <path d="m-731.41 572.62v4.4731l3.8742-2.2366z" fill="#a08"/>
   <g fill="#f5d">
    <path d="m-743.04 570.38 3.8741-2.2367-3.8741-2.2368-3.8741 2.2368z"/>
    <path d="m-746.91 568.15 3.8741-2.2367-3.8741-2.2368-3.8741 2.2368z"/>
    <path d="m-731.41 572.62 3.8741-2.2367-3.8741-2.2368-3.8741 2.2368z"/>
    <path d="m-727.54 570.38 3.8741-2.2367-3.8741-2.2368-3.8741 2.2368z"/>
    <path d="m-723.67 568.15 3.8741-2.2367-3.8741-2.2368-3.8741 2.2368z"/>
   </g>
   <path d="m-750.78 561.44v4.4731l3.8742-2.2366z" fill="#d400aa"/>
   <path d="m-719.79 561.44-3.8742 2.2366 3.8742 2.2366z" fill="#a08"/>
   <path d="m-727.54 570.38-3.8742 2.2366 3.8742 2.2366z" fill="#f5d"/>
   <path d="m-754.66 563.67 3.8741-2.2367-3.8741-2.2368-3.8741 2.2368z" fill="#5fd38d"/>
   <g transform="matrix(.49998 0 0 .49998 -463.07 321.13)">
    <path d="m-581.27 437.02-1.937 1.1183 1.937 1.1184 1.937-1.1184z" fill="#f5d"/>
    <path d="m-579.33 438.14-1.937 1.1184v2.2367l1.937-1.1183z" fill="#d400aa"/>
    <path d="m-583.2 438.14 1.937 1.1184v2.2367l-1.937-1.1183z" fill="#a08"/>
   </g>
   <g transform="matrix(.49998 0 0 .49998 -464.03 321.68)">
    <path d="m-581.27 437.02-1.937 1.1183 1.937 1.1184 1.937-1.1184z" fill="#f5d"/>
    <path d="m-579.33 438.14-1.937 1.1184v2.2367l1.937-1.1183z" fill="#d400aa"/>
    <path d="m-583.2 438.14 1.937 1.1184v2.2367l-1.937-1.1183z" fill="#a08"/>
   </g>
   <g transform="matrix(.49998 0 0 .49998 -465 322.24)">
    <path d="m-581.27 437.02-1.937 1.1183 1.937 1.1184 1.937-1.1184z" fill="#f5d"/>
    <path d="m-579.33 438.14-1.937 1.1184v2.2367l1.937-1.1183z" fill="#d400aa"/>
    <path d="m-583.2 438.14 1.937 1.1184v2.2367l-1.937-1.1183z" fill="#a08"/>
   </g>
   <g transform="matrix(.49998 0 0 .49998 -465.97 322.8)">
    <path d="m-581.27 437.02-1.937 1.1183 1.937 1.1184 1.937-1.1184z" fill="#f5d"/>
    <path d="m-579.33 438.14-1.937 1.1184v2.2367l1.937-1.1183z" fill="#d400aa"/>
    <path d="m-583.2 438.14 1.937 1.1184v2.2367l-1.937-1.1183z" fill="#a08"/>
   </g>
   <g transform="matrix(.49998 0 0 .49998 -466.94 323.36)">
    <path d="m-581.27 437.02-1.937 1.1183 1.937 1.1184 1.937-1.1184z" fill="#f5d"/>
    <path d="m-579.33 438.14-1.937 1.1184v2.2367l1.937-1.1183z" fill="#d400aa"/>
    <path d="m-583.2 438.14 1.937 1.1184v2.2367l-1.937-1.1183z" fill="#a08"/>
   </g>
   <g transform="matrix(.49998 0 0 .49998 -464.03 322.8)">
    <path d="m-581.27 437.02-1.937 1.1183 1.937 1.1184 1.937-1.1184z" fill="#f5d"/>
    <path d="m-579.33 438.14-1.937 1.1184v2.2367l1.937-1.1183z" fill="#d400aa"/>
    <path d="m-583.2 438.14 1.937 1.1184v2.2367l-1.937-1.1183z" fill="#a08"/>
   </g>
   <g transform="matrix(.49998 0 0 .49998 -463.07 323.36)">
    <path d="m-581.27 437.02-1.937 1.1183 1.937 1.1184 1.937-1.1184z" fill="#f5d"/>
    <path d="m-579.33 438.14-1.937 1.1184v2.2367l1.937-1.1183z" fill="#d400aa"/>
    <path d="m-583.2 438.14 1.937 1.1184v2.2367l-1.937-1.1183z" fill="#a08"/>
   </g>
   <g transform="matrix(.49998 0 0 .49998 -462.1 323.92)">
    <path d="m-581.27 437.02-1.937 1.1183 1.937 1.1184 1.937-1.1184z" fill="#f5d"/>
    <path d="m-579.33 438.14-1.937 1.1184v2.2367l1.937-1.1183z" fill="#d400aa"/>
    <path d="m-583.2 438.14 1.937 1.1184v2.2367l-1.937-1.1183z" fill="#a08"/>
   </g>
   <g transform="matrix(.49998 0 0 .49998 -461.13 324.48)">
    <path d="m-581.27 437.02-1.937 1.1183 1.937 1.1184 1.937-1.1184z" fill="#f5d"/>
    <path d="m-579.33 438.14-1.937 1.1184v2.2367l1.937-1.1183z" fill="#d400aa"/>
    <path d="m-583.2 438.14 1.937 1.1184v2.2367l-1.937-1.1183z" fill="#a08"/>
   </g>
   <g transform="matrix(.49998 0 0 .49998 -455.32 321.13)">
    <path d="m-581.27 437.02-1.937 1.1183 1.937 1.1184 1.937-1.1184z" fill="#f5d"/>
    <path d="m-579.33 438.14-1.937 1.1184v2.2367l1.937-1.1183z" fill="#d400aa"/>
    <path d="m-583.2 438.14 1.937 1.1184v2.2367l-1.937-1.1183z" fill="#a08"/>
   </g>
   <g transform="matrix(.49998 0 0 .49998 -456.29 321.68)">
    <path d="m-581.27 437.02-1.937 1.1183 1.937 1.1184 1.937-1.1184z" fill="#f5d"/>
    <path d="m-579.33 438.14-1.937 1.1184v2.2367l1.937-1.1183z" fill="#d400aa"/>
    <path d="m-583.2 438.14 1.937 1.1184v2.2367l-1.937-1.1183z" fill="#a08"/>
   </g>
   <g transform="matrix(.49998 0 0 .49998 -459.19 318.89)">
    <path d="m-581.27 437.02-1.937 1.1183 1.937 1.1184 1.937-1.1184z" fill="#f5d"/>
    <path d="m-579.33 438.14-1.937 1.1184v2.2367l1.937-1.1183z" fill="#d400aa"/>
    <path d="m-583.2 438.14 1.937 1.1184v2.2367l-1.937-1.1183z" fill="#a08"/>
   </g>
   <g transform="matrix(.49998 0 0 .49998 -460.16 319.45)">
    <path d="m-581.27 437.02-1.937 1.1183 1.937 1.1184 1.937-1.1184z" fill="#f5d"/>
    <path d="m-579.33 438.14-1.937 1.1184v2.2367l1.937-1.1183z" fill="#d400aa"/>
    <path d="m-583.2 438.14 1.937 1.1184v2.2367l-1.937-1.1183z" fill="#a08"/>
   </g>
   <g transform="matrix(.49998 0 0 .49998 -461.13 320.01)">
    <path d="m-581.27 437.02-1.937 1.1183 1.937 1.1184 1.937-1.1184z" fill="#f5d"/>
    <path d="m-579.33 438.14-1.937 1.1184v2.2367l1.937-1.1183z" fill="#d400aa"/>
    <path d="m-583.2 438.14 1.937 1.1184v2.2367l-1.937-1.1183z" fill="#a08"/>
   </g>
   <g transform="matrix(.49998 0 0 .49998 -460.16 320.57)">
    <path d="m-581.27 437.02-1.937 1.1183 1.937 1.1184 1.937-1.1184z" fill="#f5d"/>
    <path d="m-579.33 438.14-1.937 1.1184v2.2367l1.937-1.1183z" fill="#d400aa"/>
    <path d="m-583.2 438.14 1.937 1.1184v2.2367l-1.937-1.1183z" fill="#a08"/>
   </g>
   <g transform="matrix(.49998 0 0 .49998 -458.22 320.57)">
    <path d="m-581.27 437.02-1.937 1.1183 1.937 1.1184 1.937-1.1184z" fill="#f5d"/>
    <path d="m-579.33 438.14-1.937 1.1184v2.2367l1.937-1.1183z" fill="#d400aa"/>
    <path d="m-583.2 438.14 1.937 1.1184v2.2367l-1.937-1.1183z" fill="#a08"/>
   </g>
   <g transform="matrix(.49998 0 0 .49998 -459.19 321.13)">
    <path d="m-581.27 437.02-1.937 1.1183 1.937 1.1184 1.937-1.1184z" fill="#f5d"/>
    <path d="m-579.33 438.14-1.937 1.1184v2.2367l1.937-1.1183z" fill="#d400aa"/>
    <path d="m-583.2 438.14 1.937 1.1184v2.2367l-1.937-1.1183z" fill="#a08"/>
   </g>
   <g transform="matrix(.49998 0 0 .49998 -458.22 321.68)">
    <path d="m-581.27 437.02-1.937 1.1183 1.937 1.1184 1.937-1.1184z" fill="#f5d"/>
    <path d="m-579.33 438.14-1.937 1.1184v2.2367l1.937-1.1183z" fill="#d400aa"/>
    <path d="m-583.2 438.14 1.937 1.1184v2.2367l-1.937-1.1183z" fill="#a08"/>
   </g>
   <g transform="matrix(.49998 0 0 .49998 -457.26 322.24)">
    <path d="m-581.27 437.02-1.937 1.1183 1.937 1.1184 1.937-1.1184z" fill="#f5d"/>
    <path d="m-579.33 438.14-1.937 1.1184v2.2367l1.937-1.1183z" fill="#d400aa"/>
    <path d="m-583.2 438.14 1.937 1.1184v2.2367l-1.937-1.1183z" fill="#a08"/>
   </g>
   <g transform="matrix(.49998 0 0 .49998 -457.26 317.77)">
    <path d="m-581.27 437.02-1.937 1.1183 1.937 1.1184 1.937-1.1184z" fill="#f5d"/>
    <path d="m-579.33 438.14-1.937 1.1184v2.2367l1.937-1.1183z" fill="#d400aa"/>
    <path d="m-583.2 438.14 1.937 1.1184v2.2367l-1.937-1.1183z" fill="#a08"/>
   </g>
   <g transform="matrix(.49998 0 0 .49998 -455.32 317.77)">
    <path d="m-581.27 437.02-1.937 1.1183 1.937 1.1184 1.937-1.1184z" fill="#f5d"/>
    <path d="m-579.33 438.14-1.937 1.1184v2.2367l1.937-1.1183z" fill="#d400aa"/>
    <path d="m-583.2 438.14 1.937 1.1184v2.2367l-1.937-1.1183z" fill="#a08"/>
   </g>
   <g transform="matrix(.49998 0 0 .49998 -451.44 317.77)">
    <path d="m-581.27 437.02-1.937 1.1183 1.937 1.1184 1.937-1.1184z" fill="#f5d"/>
    <path d="m-579.33 438.14-1.937 1.1184v2.2367l1.937-1.1183z" fill="#d400aa"/>
    <path d="m-583.2 438.14 1.937 1.1184v2.2367l-1.937-1.1183z" fill="#a08"/>
   </g>
   <g transform="matrix(.49998 0 0 .49998 -449.51 317.77)">
    <path d="m-581.27 437.02-1.937 1.1183 1.937 1.1184 1.937-1.1184z" fill="#f5d"/>
    <path d="m-579.33 438.14-1.937 1.1184v2.2367l1.937-1.1183z" fill="#d400aa"/>
    <path d="m-583.2 438.14 1.937 1.1184v2.2367l-1.937-1.1183z" fill="#a08"/>
   </g>
   <g transform="matrix(.49998 0 0 .49998 -453.38 315.53)">
    <path d="m-581.27 437.02-1.937 1.1183 1.937 1.1184 1.937-1.1184z" fill="#f5d"/>
    <path d="m-579.33 438.14-1.937 1.1184v2.2367l1.937-1.1183z" fill="#d400aa"/>
    <path d="m-583.2 438.14 1.937 1.1184v2.2367l-1.937-1.1183z" fill="#a08"/>
   </g>
   <g transform="matrix(.49998 0 0 .49998 -453.38 316.65)">
    <path d="m-581.27 437.02-1.937 1.1183 1.937 1.1184 1.937-1.1184z" fill="#f5d"/>
    <path d="m-579.33 438.14-1.937 1.1184v2.2367l1.937-1.1183z" fill="#d400aa"/>
    <path d="m-583.2 438.14 1.937 1.1184v2.2367l-1.937-1.1183z" fill="#a08"/>
   </g>
   <g transform="matrix(.49998 0 0 .49998 -453.38 317.77)">
    <path d="m-581.27 437.02-1.937 1.1183 1.937 1.1184 1.937-1.1184z" fill="#f5d"/>
    <path d="m-579.33 438.14-1.937 1.1184v2.2367l1.937-1.1183z" fill="#d400aa"/>
    <path d="m-583.2 438.14 1.937 1.1184v2.2367l-1.937-1.1183z" fill="#a08"/>
   </g>
   <g transform="matrix(.49998 0 0 .49998 -453.38 318.89)">
    <path d="m-581.27 437.02-1.937 1.1183 1.937 1.1184 1.937-1.1184z" fill="#f5d"/>
    <path d="m-579.33 438.14-1.937 1.1184v2.2367l1.937-1.1183z" fill="#d400aa"/>
    <path d="m-583.2 438.14 1.937 1.1184v2.2367l-1.937-1.1183z" fill="#a08"/>
   </g>
   <g transform="matrix(.49998 0 0 .49998 -453.38 320.01)">
    <path d="m-581.27 437.02-1.937 1.1183 1.937 1.1184 1.937-1.1184z" fill="#f5d"/>
    <path d="m-579.33 438.14-1.937 1.1184v2.2367l1.937-1.1183z" fill="#d400aa"/>
    <path d="m-583.2 438.14 1.937 1.1184v2.2367l-1.937-1.1183z" fill="#a08"/>
   </g>
   <g transform="matrix(.49998 0 0 .49998 -445.63 315.53)">
    <path d="m-581.27 437.02-1.937 1.1183 1.937 1.1184 1.937-1.1184z" fill="#f5d"/>
    <path d="m-579.33 438.14-1.937 1.1184v2.2367l1.937-1.1183z" fill="#d400aa"/>
    <path d="m-583.2 438.14 1.937 1.1184v2.2367l-1.937-1.1183z" fill="#a08"/>
   </g>
   <g transform="matrix(.49998 0 0 .49998 -446.6 316.09)">
    <path d="m-581.27 437.02-1.937 1.1183 1.937 1.1184 1.937-1.1184z" fill="#f5d"/>
    <path d="m-579.33 438.14-1.937 1.1184v2.2367l1.937-1.1183z" fill="#d400aa"/>
    <path d="m-583.2 438.14 1.937 1.1184v2.2367l-1.937-1.1183z" fill="#a08"/>
   </g>
   <g transform="matrix(.49998 0 0 .49998 -449.51 313.3)">
    <path d="m-581.27 437.02-1.937 1.1183 1.937 1.1184 1.937-1.1184z" fill="#f5d"/>
    <path d="m-579.33 438.14-1.937 1.1184v2.2367l1.937-1.1183z" fill="#d400aa"/>
    <path d="m-583.2 438.14 1.937 1.1184v2.2367l-1.937-1.1183z" fill="#a08"/>
   </g>
   <g transform="matrix(.49998 0 0 .49998 -450.48 313.86)">
    <path d="m-581.27 437.02-1.937 1.1183 1.937 1.1184 1.937-1.1184z" fill="#f5d"/>
    <path d="m-579.33 438.14-1.937 1.1184v2.2367l1.937-1.1183z" fill="#d400aa"/>
    <path d="m-583.2 438.14 1.937 1.1184v2.2367l-1.937-1.1183z" fill="#a08"/>
   </g>
   <g transform="matrix(.49998 0 0 .49998 -451.44 314.42)">
    <path d="m-581.27 437.02-1.937 1.1183 1.937 1.1184 1.937-1.1184z" fill="#f5d"/>
    <path d="m-579.33 438.14-1.937 1.1184v2.2367l1.937-1.1183z" fill="#d400aa"/>
    <path d="m-583.2 438.14 1.937 1.1184v2.2367l-1.937-1.1183z" fill="#a08"/>
   </g>
   <g transform="matrix(.49998 0 0 .49998 -450.48 314.97)">
    <path d="m-581.27 437.02-1.937 1.1183 1.937 1.1184 1.937-1.1184z" fill="#f5d"/>
    <path d="m-579.33 438.14-1.937 1.1184v2.2367l1.937-1.1183z" fill="#d400aa"/>
    <path d="m-583.2 438.14 1.937 1.1184v2.2367l-1.937-1.1183z" fill="#a08"/>
   </g>
   <g transform="matrix(.49998 0 0 .49998 -448.54 314.97)">
    <path d="m-581.27 437.02-1.937 1.1183 1.937 1.1184 1.937-1.1184z" fill="#f5d"/>
    <path d="m-579.33 438.14-1.937 1.1184v2.2367l1.937-1.1183z" fill="#d400aa"/>
    <path d="m-583.2 438.14 1.937 1.1184v2.2367l-1.937-1.1183z" fill="#a08"/>
   </g>
   <g transform="matrix(.49998 0 0 .49998 -449.51 315.53)">
    <path d="m-581.27 437.02-1.937 1.1183 1.937 1.1184 1.937-1.1184z" fill="#f5d"/>
    <path d="m-579.33 438.14-1.937 1.1184v2.2367l1.937-1.1183z" fill="#d400aa"/>
    <path d="m-583.2 438.14 1.937 1.1184v2.2367l-1.937-1.1183z" fill="#a08"/>
   </g>
   <g transform="matrix(.49998 0 0 .49998 -448.54 316.09)">
    <path d="m-581.27 437.02-1.937 1.1183 1.937 1.1184 1.937-1.1184z" fill="#f5d"/>
    <path d="m-579.33 438.14-1.937 1.1184v2.2367l1.937-1.1183z" fill="#d400aa"/>
    <path d="m-583.2 438.14 1.937 1.1184v2.2367l-1.937-1.1183z" fill="#a08"/>
   </g>
   <g transform="matrix(.49998 0 0 .49998 -447.57 316.65)">
    <path d="m-581.27 437.02-1.937 1.1183 1.937 1.1184 1.937-1.1184z" fill="#f5d"/>
    <path d="m-579.33 438.14-1.937 1.1184v2.2367l1.937-1.1183z" fill="#d400aa"/>
    <path d="m-583.2 438.14 1.937 1.1184v2.2367l-1.937-1.1183z" fill="#a08"/>
   </g>
   <g transform="matrix(.49998 0 0 .49998 -447.57 312.18)">
    <path d="m-581.27 437.02-1.937 1.1183 1.937 1.1184 1.937-1.1184z" fill="#f5d"/>
    <path d="m-579.33 438.14-1.937 1.1184v2.2367l1.937-1.1183z" fill="#d400aa"/>
    <path d="m-583.2 438.14 1.937 1.1184v2.2367l-1.937-1.1183z" fill="#a08"/>
   </g>
   <g transform="matrix(.49998 0 0 .49998 -446.6 312.74)">
    <path d="m-581.27 437.02-1.937 1.1183 1.937 1.1184 1.937-1.1184z" fill="#f5d"/>
    <path d="m-579.33 438.14-1.937 1.1184v2.2367l1.937-1.1183z" fill="#d400aa"/>
    <path d="m-583.2 438.14 1.937 1.1184v2.2367l-1.937-1.1183z" fill="#a08"/>
   </g>
   <g transform="matrix(.49998 0 0 .49998 -445.63 313.3)">
    <path d="m-581.27 437.02-1.937 1.1183 1.937 1.1184 1.937-1.1184z" fill="#f5d"/>
    <path d="m-579.33 438.14-1.937 1.1184v2.2367l1.937-1.1183z" fill="#d400aa"/>
    <path d="m-583.2 438.14 1.937 1.1184v2.2367l-1.937-1.1183z" fill="#a08"/>
   </g>
   <g transform="matrix(.49998 0 0 .49998 -444.67 313.86)">
    <path d="m-581.27 437.02-1.937 1.1183 1.937 1.1184 1.937-1.1184z" fill="#f5d"/>
    <path d="m-579.33 438.14-1.937 1.1184v2.2367l1.937-1.1183z" fill="#d400aa"/>
    <path d="m-583.2 438.14 1.937 1.1184v2.2367l-1.937-1.1183z" fill="#a08"/>
   </g>
   <g transform="matrix(.49998 0 0 .49998 -441.76 313.3)">
    <path d="m-581.27 437.02-1.937 1.1183 1.937 1.1184 1.937-1.1184z" fill="#f5d"/>
    <path d="m-579.33 438.14-1.937 1.1184v2.2367l1.937-1.1183z" fill="#d400aa"/>
    <path d="m-583.2 438.14 1.937 1.1184v2.2367l-1.937-1.1183z" fill="#a08"/>
   </g>
   <g transform="matrix(.49998 0 0 .49998 -442.73 313.86)">
    <path d="m-581.27 437.02-1.937 1.1183 1.937 1.1184 1.937-1.1184z" fill="#f5d"/>
    <path d="m-579.33 438.14-1.937 1.1184v2.2367l1.937-1.1183z" fill="#d400aa"/>
    <path d="m-583.2 438.14 1.937 1.1184v2.2367l-1.937-1.1183z" fill="#a08"/>
   </g>
   <g transform="matrix(.49998 0 0 .49998 -443.7 314.42)">
    <path d="m-581.27 437.02-1.937 1.1183 1.937 1.1184 1.937-1.1184z" fill="#f5d"/>
    <path d="m-579.33 438.14-1.937 1.1184v2.2367l1.937-1.1183z" fill="#d400aa"/>
    <path d="m-583.2 438.14 1.937 1.1184v2.2367l-1.937-1.1183z" fill="#a08"/>
   </g>
   <g transform="matrix(.49998 0 0 .49998 -446.6 320.57)">
    <path d="m-581.27 437.02-1.937 1.1183 1.937 1.1184 1.937-1.1184z" fill="#f5d"/>
    <path d="m-579.33 438.14-1.937 1.1184v2.2367l1.937-1.1183z" fill="#d400aa"/>
    <path d="m-583.2 438.14 1.937 1.1184v2.2367l-1.937-1.1183z" fill="#a08"/>
   </g>
   <g transform="matrix(.49998 0 0 .49998 -444.66 321.69)">
    <path d="m-581.27 437.02-1.937 1.1183 1.937 1.1184 1.937-1.1184z" fill="#f5d"/>
    <path d="m-579.33 438.14-1.937 1.1184v2.2367l1.937-1.1183z" fill="#d400aa"/>
    <path d="m-583.2 438.14 1.937 1.1184v2.2367l-1.937-1.1183z" fill="#a08"/>
   </g>
   <g transform="matrix(.49998 0 0 .49998 -444.66 322.8)">
    <path d="m-581.27 437.02-1.937 1.1183 1.937 1.1184 1.937-1.1184z" fill="#f5d"/>
    <path d="m-579.33 438.14-1.937 1.1184v2.2367l1.937-1.1183z" fill="#d400aa"/>
    <path d="m-583.2 438.14 1.937 1.1184v2.2367l-1.937-1.1183z" fill="#a08"/>
   </g>
   <g transform="matrix(.49998 0 0 .49998 -445.63 323.36)">
    <path d="m-581.27 437.02-1.937 1.1183 1.937 1.1184 1.937-1.1184z" fill="#f5d"/>
    <path d="m-579.33 438.14-1.937 1.1184v2.2367l1.937-1.1183z" fill="#d400aa"/>
    <path d="m-583.2 438.14 1.937 1.1184v2.2367l-1.937-1.1183z" fill="#a08"/>
   </g>
   <g transform="matrix(.49998 0 0 .49998 -446.6 321.68)">
    <path d="m-581.27 437.02-1.937 1.1183 1.937 1.1184 1.937-1.1184z" fill="#f5d"/>
    <path d="m-579.33 438.14-1.937 1.1184v2.2367l1.937-1.1183z" fill="#d400aa"/>
    <path d="m-583.2 438.14 1.937 1.1184v2.2367l-1.937-1.1183z" fill="#a08"/>
   </g>
   <g transform="matrix(.49998 0 0 .49998 -447.57 322.24)">
    <path d="m-581.27 437.02-1.937 1.1183 1.937 1.1184 1.937-1.1184z" fill="#f5d"/>
    <path d="m-579.33 438.14-1.937 1.1184v2.2367l1.937-1.1183z" fill="#d400aa"/>
    <path d="m-583.2 438.14 1.937 1.1184v2.2367l-1.937-1.1183z" fill="#a08"/>
   </g>
   <g transform="matrix(.49998 0 0 .49998 -448.54 320.57)">
    <path d="m-581.27 437.02-1.937 1.1183 1.937 1.1184 1.937-1.1184z" fill="#f5d"/>
    <path d="m-579.33 438.14-1.937 1.1184v2.2367l1.937-1.1183z" fill="#d400aa"/>
    <path d="m-583.2 438.14 1.937 1.1184v2.2367l-1.937-1.1183z" fill="#a08"/>
   </g>
   <g transform="matrix(.49998 0 0 .49998 -449.51 321.13)">
    <path d="m-581.27 437.02-1.937 1.1183 1.937 1.1184 1.937-1.1184z" fill="#f5d"/>
    <path d="m-579.33 438.14-1.937 1.1184v2.2367l1.937-1.1183z" fill="#d400aa"/>
    <path d="m-583.2 438.14 1.937 1.1184v2.2367l-1.937-1.1183z" fill="#a08"/>
   </g>
   <g transform="matrix(.49998 0 0 .49998 -450.48 321.68)">
    <path d="m-581.27 437.02-1.937 1.1183 1.937 1.1184 1.937-1.1184z" fill="#f5d"/>
    <path d="m-579.33 438.14-1.937 1.1184v2.2367l1.937-1.1183z" fill="#d400aa"/>
    <path d="m-583.2 438.14 1.937 1.1184v2.2367l-1.937-1.1183z" fill="#a08"/>
   </g>
   <g transform="matrix(.49998 0 0 .49998 -449.51 322.24)">
    <path d="m-581.27 437.02-1.937 1.1183 1.937 1.1184 1.937-1.1184z" fill="#f5d"/>
    <path d="m-579.33 438.14-1.937 1.1184v2.2367l1.937-1.1183z" fill="#d400aa"/>
    <path d="m-583.2 438.14 1.937 1.1184v2.2367l-1.937-1.1183z" fill="#a08"/>
   </g>
   <g transform="matrix(.49998 0 0 .49998 -448.54 322.8)">
    <path d="m-581.27 437.02-1.937 1.1183 1.937 1.1184 1.937-1.1184z" fill="#f5d"/>
    <path d="m-579.33 438.14-1.937 1.1184v2.2367l1.937-1.1183z" fill="#d400aa"/>
    <path d="m-583.2 438.14 1.937 1.1184v2.2367l-1.937-1.1183z" fill="#a08"/>
   </g>
   <g transform="matrix(.49998 0 0 .49998 -447.57 323.36)">
    <path d="m-581.27 437.02-1.937 1.1183 1.937 1.1184 1.937-1.1184z" fill="#f5d"/>
    <path d="m-579.33 438.14-1.937 1.1184v2.2367l1.937-1.1183z" fill="#d400aa"/>
    <path d="m-583.2 438.14 1.937 1.1184v2.2367l-1.937-1.1183z" fill="#a08"/>
   </g>
   <g transform="matrix(.49998 0 0 .49998 -446.6 323.92)">
    <path d="m-581.27 437.02-1.937 1.1183 1.937 1.1184 1.937-1.1184z" fill="#f5d"/>
    <path d="m-579.33 438.14-1.937 1.1184v2.2367l1.937-1.1183z" fill="#d400aa"/>
    <path d="m-583.2 438.14 1.937 1.1184v2.2367l-1.937-1.1183z" fill="#a08"/>
   </g>
   <g transform="matrix(.49998 0 0 .49998 -443.7 317.77)">
    <path d="m-581.27 437.02-1.937 1.1183 1.937 1.1184 1.937-1.1184z" fill="#f5d"/>
    <path d="m-579.33 438.14-1.937 1.1184v2.2367l1.937-1.1183z" fill="#d400aa"/>
    <path d="m-583.2 438.14 1.937 1.1184v2.2367l-1.937-1.1183z" fill="#a08"/>
   </g>
   <g transform="matrix(.49998 0 0 .49998 -442.73 318.33)">
    <path d="m-581.27 437.02-1.937 1.1183 1.937 1.1184 1.937-1.1184z" fill="#f5d"/>
    <path d="m-579.33 438.14-1.937 1.1184v2.2367l1.937-1.1183z" fill="#d400aa"/>
    <path d="m-583.2 438.14 1.937 1.1184v2.2367l-1.937-1.1183z" fill="#a08"/>
   </g>
   <g transform="matrix(.49998 0 0 .49998 -441.76 318.89)">
    <path d="m-581.27 437.02-1.937 1.1183 1.937 1.1184 1.937-1.1184z" fill="#f5d"/>
    <path d="m-579.33 438.14-1.937 1.1184v2.2367l1.937-1.1183z" fill="#d400aa"/>
    <path d="m-583.2 438.14 1.937 1.1184v2.2367l-1.937-1.1183z" fill="#a08"/>
   </g>
   <g transform="matrix(.49998 0 0 .49998 -440.79 319.45)">
    <path d="m-581.27 437.02-1.937 1.1183 1.937 1.1184 1.937-1.1184z" fill="#f5d"/>
    <path d="m-579.33 438.14-1.937 1.1184v2.2367l1.937-1.1183z" fill="#d400aa"/>
    <path d="m-583.2 438.14 1.937 1.1184v2.2367l-1.937-1.1183z" fill="#a08"/>
   </g>
   <g transform="matrix(.49998 0 0 .49998 -439.82 320.01)">
    <path d="m-581.27 437.02-1.937 1.1183 1.937 1.1184 1.937-1.1184z" fill="#f5d"/>
    <path d="m-579.33 438.14-1.937 1.1184v2.2367l1.937-1.1183z" fill="#d400aa"/>
    <path d="m-583.2 438.14 1.937 1.1184v2.2367l-1.937-1.1183z" fill="#a08"/>
   </g>
   <g transform="matrix(.49998 0 0 .49998 -444.66 318.33)">
    <path d="m-581.27 437.02-1.937 1.1183 1.937 1.1184 1.937-1.1184z" fill="#f5d"/>
    <path d="m-579.33 438.14-1.937 1.1184v2.2367l1.937-1.1183z" fill="#d400aa"/>
    <path d="m-583.2 438.14 1.937 1.1184v2.2367l-1.937-1.1183z" fill="#a08"/>
   </g>
   <g transform="matrix(.49998 0 0 .49998 -445.63 318.89)">
    <path d="m-581.27 437.02-1.937 1.1183 1.937 1.1184 1.937-1.1184z" fill="#f5d"/>
    <path d="m-579.33 438.14-1.937 1.1184v2.2367l1.937-1.1183z" fill="#d400aa"/>
    <path d="m-583.2 438.14 1.937 1.1184v2.2367l-1.937-1.1183z" fill="#a08"/>
   </g>
   <g transform="matrix(.49998 0 0 .49998 -444.66 319.45)">
    <path d="m-581.27 437.02-1.937 1.1183 1.937 1.1184 1.937-1.1184z" fill="#f5d"/>
    <path d="m-579.33 438.14-1.937 1.1184v2.2367l1.937-1.1183z" fill="#d400aa"/>
    <path d="m-583.2 438.14 1.937 1.1184v2.2367l-1.937-1.1183z" fill="#a08"/>
   </g>
   <g transform="matrix(.49998 0 0 .49998 -443.7 320.01)">
    <path d="m-581.27 437.02-1.937 1.1183 1.937 1.1184 1.937-1.1184z" fill="#f5d"/>
    <path d="m-579.33 438.14-1.937 1.1184v2.2367l1.937-1.1183z" fill="#d400aa"/>
    <path d="m-583.2 438.14 1.937 1.1184v2.2367l-1.937-1.1183z" fill="#a08"/>
   </g>
   <g transform="matrix(.49998 0 0 .49998 -442.73 320.57)">
    <path d="m-581.27 437.02-1.937 1.1183 1.937 1.1184 1.937-1.1184z" fill="#f5d"/>
    <path d="m-579.33 438.14-1.937 1.1184v2.2367l1.937-1.1183z" fill="#d400aa"/>
    <path d="m-583.2 438.14 1.937 1.1184v2.2367l-1.937-1.1183z" fill="#a08"/>
   </g>
   <g transform="matrix(.49998 0 0 .49998 -440.79 320.57)">
    <path d="m-581.27 437.02-1.937 1.1183 1.937 1.1184 1.937-1.1184z" fill="#f5d"/>
    <path d="m-579.33 438.14-1.937 1.1184v2.2367l1.937-1.1183z" fill="#d400aa"/>
    <path d="m-583.2 438.14 1.937 1.1184v2.2367l-1.937-1.1183z" fill="#a08"/>
   </g>
   <g transform="matrix(.49998 0 0 .49998 -441.76 321.13)">
    <path d="m-581.27 437.02-1.937 1.1183 1.937 1.1184 1.937-1.1184z" fill="#f5d"/>
    <path d="m-579.33 438.14-1.937 1.1184v2.2367l1.937-1.1183z" fill="#d400aa"/>
    <path d="m-583.2 438.14 1.937 1.1184v2.2367l-1.937-1.1183z" fill="#a08"/>
   </g>
   <g transform="matrix(.49998 0 0 .49998 -441.76 316.65)">
    <path d="m-581.27 437.02-1.937 1.1183 1.937 1.1184 1.937-1.1184z" fill="#f5d"/>
    <path d="m-579.33 438.14-1.937 1.1184v2.2367l1.937-1.1183z" fill="#d400aa"/>
    <path d="m-583.2 438.14 1.937 1.1184v2.2367l-1.937-1.1183z" fill="#a08"/>
   </g>
   <g transform="matrix(.49998 0 0 .49998 -439.82 316.65)">
    <path d="m-581.27 437.02-1.937 1.1183 1.937 1.1184 1.937-1.1184z" fill="#f5d"/>
    <path d="m-579.33 438.14-1.937 1.1184v2.2367l1.937-1.1183z" fill="#d400aa"/>
    <path d="m-583.2 438.14 1.937 1.1184v2.2367l-1.937-1.1183z" fill="#a08"/>
   </g>
   <g transform="matrix(.49998 0 0 .49998 -435.95 316.65)">
    <path d="m-581.27 437.02-1.937 1.1183 1.937 1.1184 1.937-1.1184z" fill="#f5d"/>
    <path d="m-579.33 438.14-1.937 1.1184v2.2367l1.937-1.1183z" fill="#d400aa"/>
    <path d="m-583.2 438.14 1.937 1.1184v2.2367l-1.937-1.1183z" fill="#a08"/>
   </g>
   <g transform="matrix(.49998 0 0 .49998 -434.01 316.65)">
    <path d="m-581.27 437.02-1.937 1.1183 1.937 1.1184 1.937-1.1184z" fill="#f5d"/>
    <path d="m-579.33 438.14-1.937 1.1184v2.2367l1.937-1.1183z" fill="#d400aa"/>
    <path d="m-583.2 438.14 1.937 1.1184v2.2367l-1.937-1.1183z" fill="#a08"/>
   </g>
   <g transform="matrix(.49998 0 0 .49998 -437.89 314.42)">
    <path d="m-581.27 437.02-1.937 1.1183 1.937 1.1184 1.937-1.1184z" fill="#f5d"/>
    <path d="m-579.33 438.14-1.937 1.1184v2.2367l1.937-1.1183z" fill="#d400aa"/>
    <path d="m-583.2 438.14 1.937 1.1184v2.2367l-1.937-1.1183z" fill="#a08"/>
   </g>
   <g transform="matrix(.49998 0 0 .49998 -437.89 315.53)">
    <path d="m-581.27 437.02-1.937 1.1183 1.937 1.1184 1.937-1.1184z" fill="#f5d"/>
    <path d="m-579.33 438.14-1.937 1.1184v2.2367l1.937-1.1183z" fill="#d400aa"/>
    <path d="m-583.2 438.14 1.937 1.1184v2.2367l-1.937-1.1183z" fill="#a08"/>
   </g>
   <g transform="matrix(.49998 0 0 .49998 -437.89 316.65)">
    <path d="m-581.27 437.02-1.937 1.1183 1.937 1.1184 1.937-1.1184z" fill="#f5d"/>
    <path d="m-579.33 438.14-1.937 1.1184v2.2367l1.937-1.1183z" fill="#d400aa"/>
    <path d="m-583.2 438.14 1.937 1.1184v2.2367l-1.937-1.1183z" fill="#a08"/>
   </g>
   <g transform="matrix(.49998 0 0 .49998 -437.89 317.77)">
    <path d="m-581.27 437.02-1.937 1.1183 1.937 1.1184 1.937-1.1184z" fill="#f5d"/>
    <path d="m-579.33 438.14-1.937 1.1184v2.2367l1.937-1.1183z" fill="#d400aa"/>
    <path d="m-583.2 438.14 1.937 1.1184v2.2367l-1.937-1.1183z" fill="#a08"/>
   </g>
   <g transform="matrix(.49998 0 0 .49998 -437.89 318.89)">
    <path d="m-581.27 437.02-1.937 1.1183 1.937 1.1184 1.937-1.1184z" fill="#f5d"/>
    <path d="m-579.33 438.14-1.937 1.1184v2.2367l1.937-1.1183z" fill="#d400aa"/>
    <path d="m-583.2 438.14 1.937 1.1184v2.2367l-1.937-1.1183z" fill="#a08"/>
   </g>
   <g fill="#2ca05a">
    <path d="m-723.67 541.31-3.8742 2.2366 3.8742 2.2366z"/>
    <path d="m-735.29 552.49 3.8741-2.2367-3.8741-2.2368-3.8741 2.2368z"/>
    <path d="m-731.41 550.25 3.8741-2.2367-3.8741-2.2368-3.8741 2.2368z"/>
   </g>
   <path d="m-723.67 541.31v4.4731l3.8742-2.2366z" fill="#217844"/>
   <g transform="matrix(.49998 0 0 .49998 -433.04 325.04)">
    <path d="m-581.27 437.02-1.937 1.1183 1.937 1.1184 1.937-1.1184z" fill="#f5d"/>
    <path d="m-579.33 438.14-1.937 1.1184v2.2367l1.937-1.1183z" fill="#d400aa"/>
    <path d="m-583.2 438.14 1.937 1.1184v2.2367l-1.937-1.1183z" fill="#a08"/>
   </g>
   <g transform="matrix(.49998 0 0 .49998 -433.04 323.92)">
    <path d="m-581.27 437.02-1.937 1.1183 1.937 1.1184 1.937-1.1184z" fill="#f5d"/>
    <path d="m-579.33 438.14-1.937 1.1184v2.2367l1.937-1.1183z" fill="#d400aa"/>
    <path d="m-583.2 438.14 1.937 1.1184v2.2367l-1.937-1.1183z" fill="#a08"/>
   </g>
   <g transform="matrix(.49998 0 0 .49998 -433.04 322.8)">
    <path d="m-581.27 437.02-1.937 1.1183 1.937 1.1184 1.937-1.1184z" fill="#f5d"/>
    <path d="m-579.33 438.14-1.937 1.1184v2.2367l1.937-1.1183z" fill="#d400aa"/>
    <path d="m-583.2 438.14 1.937 1.1184v2.2367l-1.937-1.1183z" fill="#a08"/>
   </g>
   <g transform="matrix(.49998 0 0 .49998 -436.92 319.45)">
    <path d="m-581.27 437.02-1.937 1.1183 1.937 1.1184 1.937-1.1184z" fill="#f5d"/>
    <path d="m-579.33 438.14-1.937 1.1184v2.2367l1.937-1.1183z" fill="#d400aa"/>
    <path d="m-583.2 438.14 1.937 1.1184v2.2367l-1.937-1.1183z" fill="#a08"/>
   </g>
   <g transform="matrix(.49998 0 0 .49998 -435.95 320.01)">
    <path d="m-581.27 437.02-1.937 1.1183 1.937 1.1184 1.937-1.1184z" fill="#f5d"/>
    <path d="m-579.33 438.14-1.937 1.1184v2.2367l1.937-1.1183z" fill="#d400aa"/>
    <path d="m-583.2 438.14 1.937 1.1184v2.2367l-1.937-1.1183z" fill="#a08"/>
   </g>
   <g transform="matrix(.49998 0 0 .49998 -434.98 320.57)">
    <path d="m-581.27 437.02-1.937 1.1183 1.937 1.1184 1.937-1.1184z" fill="#f5d"/>
    <path d="m-579.33 438.14-1.937 1.1184v2.2367l1.937-1.1183z" fill="#d400aa"/>
    <path d="m-583.2 438.14 1.937 1.1184v2.2367l-1.937-1.1183z" fill="#a08"/>
   </g>
   <g transform="matrix(.49998 0 0 .49998 -434.01 321.13)">
    <path d="m-581.27 437.02-1.937 1.1183 1.937 1.1184 1.937-1.1184z" fill="#f5d"/>
    <path d="m-579.33 438.14-1.937 1.1184v2.2367l1.937-1.1183z" fill="#d400aa"/>
    <path d="m-583.2 438.14 1.937 1.1184v2.2367l-1.937-1.1183z" fill="#a08"/>
   </g>
   <g transform="matrix(.49998 0 0 .49998 -433.04 321.68)">
    <path d="m-581.27 437.02-1.937 1.1183 1.937 1.1184 1.937-1.1184z" fill="#f5d"/>
    <path d="m-579.33 438.14-1.937 1.1184v2.2367l1.937-1.1183z" fill="#d400aa"/>
    <path d="m-583.2 438.14 1.937 1.1184v2.2367l-1.937-1.1183z" fill="#a08"/>
   </g>
   <path d="m-724.63 545.22v1.1188l0.9684-0.55912z" fill="#a08"/>
  </g>
 </g>
</svg>
