<?xml version="1.0" standalone="no"?>
<!DOCTYPE svg PUBLIC "-//W3C//DTD SVG 20010904//EN"
 "http://www.w3.org/TR/2001/REC-SVG-20010904/DTD/svg10.dtd">
<svg version="1.0" xmlns="http://www.w3.org/2000/svg"
 width="512.000000pt" height="512.000000pt" viewBox="0 0 512.000000 512.000000"
 preserveAspectRatio="xMidYMid meet">
<metadata>
Created by potrace 1.11, written by Peter Selinger 2001-2013
</metadata>
<g transform="translate(0.000000,512.000000) scale(0.100000,-0.100000)"
fill="#000000" stroke="none">
<path d="M2969 4106 c-2 -2 -47 -7 -99 -11 -52 -4 -97 -8 -100 -10 -3 -2 -43
-6 -90 -10 -47 -3 -92 -8 -100 -10 -8 -2 -53 -7 -99 -10 -47 -4 -92 -8 -100
-10 -9 -1 -50 -6 -91 -9 -41 -4 -91 -9 -110 -11 -107 -12 -141 -15 -200 -20
-36 -3 -81 -8 -100 -10 -19 -2 -64 -7 -100 -10 -36 -4 -76 -8 -90 -10 -14 -2
-59 -6 -100 -10 -75 -6 -110 -10 -185 -19 -22 -3 -74 -8 -115 -12 -41 -4 -84
-8 -95 -9 -11 -2 -32 -4 -46 -4 -24 -1 -28 -7 -42 -58 -25 -94 -93 -350 -121
-458 -15 -55 -30 -106 -34 -114 -9 -15 -15 -17 -112 -26 -36 -3 -81 -8 -100
-10 -19 -2 -64 -6 -100 -10 -36 -3 -81 -7 -100 -10 -19 -2 -62 -7 -95 -10 -88
-8 -167 -16 -195 -20 -14 -2 -65 -7 -115 -11 -50 -3 -99 -10 -109 -14 -18 -6
-18 -8 10 -26 16 -10 54 -37 84 -60 30 -22 177 -128 325 -234 149 -106 279
-201 290 -212 19 -18 19 -18 -20 -19 -22 -1 -49 -3 -60 -4 -11 -2 -54 -6 -95
-10 -41 -4 -86 -8 -100 -11 -14 -2 -54 -6 -90 -10 -36 -3 -66 -7 -68 -9 -1 -1
80 -62 180 -134 101 -73 192 -139 203 -147 35 -25 727 -524 805 -580 41 -29
138 -99 215 -154 77 -55 155 -114 173 -131 l34 -31 42 41 c46 45 47 45 275 67
l70 6 68 -48 c37 -27 71 -52 76 -55 6 -4 -9 -26 -32 -50 l-43 -42 129 -129
128 -128 95 94 c52 52 104 96 115 99 11 3 56 9 100 12 44 4 82 8 85 10 3 1 50
6 105 10 55 4 102 8 105 10 3 2 41 6 85 9 44 4 91 8 105 10 14 3 60 7 103 11
43 4 88 8 100 10 12 2 54 6 92 10 39 3 86 8 105 10 19 2 62 7 95 10 33 3 80 8
105 10 25 3 68 7 95 10 28 2 70 7 95 10 25 2 72 7 105 10 104 8 238 25 243 30
2 1 -76 60 -172 129 -96 70 -178 131 -181 136 -4 6 10 10 32 11 21 0 45 2 53
4 8 1 51 6 95 9 44 4 94 8 110 10 17 2 59 7 95 10 36 4 85 9 110 12 25 2 68 6
95 9 28 2 68 6 90 9 51 6 164 18 190 20 11 1 20 6 21 11 1 9 -136 111 -466
347 -236 170 -280 203 -280 213 0 5 14 62 31 125 17 63 33 124 35 135 3 11 26
99 53 195 l48 175 -21 17 c-18 15 -582 422 -1206 871 -107 77 -218 157 -246
178 -48 37 -65 45 -75 35z"/>
<path d="M1317 1392 l-128 -128 127 -127 c69 -70 128 -127 130 -127 7 0 256
252 252 255 -12 15 -219 223 -235 237 -18 17 -24 13 -146 -110z"/>
</g>
</svg>
